<svg width="395" height="78" viewBox="0 0 395 78" fill="none" xmlns="http://www.w3.org/2000/svg">
<g id="LOST-hero">
<path id="t" d="M333.609 75.7999V21.6999H301.509V1.3999H394.109V21.6999H362.009V75.7999H333.609Z" fill="black"/>
<path id="s" d="M253.639 77.1996H244.539C214.272 77.1996 199.139 68.3996 199.139 50.7996V49.7996H230.339C230.872 56.7996 237.072 60.2996 248.939 60.2996H249.839C253.639 60.2996 256.806 60.1329 259.339 59.7996C261.872 59.3996 263.739 58.8663 264.939 58.1996C266.139 57.4663 266.939 56.7329 267.339 55.9996C267.806 55.1996 268.039 54.2996 268.039 53.2996V53.1996C268.039 51.7996 267.672 50.6996 266.939 49.8996C266.272 49.0329 264.606 48.2996 261.939 47.6996C259.339 47.0329 255.539 46.6329 250.539 46.4996L236.739 46.0996C212.406 45.4329 200.239 37.9663 200.239 23.6996V22.7996C200.239 20.1996 200.606 17.8663 201.339 15.7996C202.072 13.6663 203.406 11.5996 205.339 9.59961C207.272 7.59961 209.806 5.93294 212.939 4.59961C216.072 3.26628 220.172 2.19961 225.239 1.39961C230.372 0.532943 236.306 0.0996094 243.039 0.0996094H251.939C282.072 0.0996094 297.139 7.93294 297.139 23.5996V24.3996H266.239C265.639 19.1329 259.639 16.4996 248.239 16.4996H247.239C242.572 16.4996 238.972 16.7996 236.439 17.3996C233.906 17.9329 232.339 18.5663 231.739 19.2996C231.139 19.9663 230.839 20.8663 230.839 21.9996V22.0996C230.839 23.2329 231.172 24.1663 231.839 24.8996C232.572 25.6329 234.172 26.2996 236.639 26.8996C239.106 27.4329 242.572 27.7329 247.039 27.7996L260.439 28.0996C274.506 28.4996 284.572 30.4663 290.639 33.9996C296.706 37.4663 299.739 42.9663 299.739 50.4996V51.8996C299.739 54.6329 299.406 57.1329 298.739 59.3996C298.072 61.5996 296.739 63.8663 294.739 66.1996C292.739 68.4663 290.072 70.3996 286.739 71.9996C283.472 73.5329 279.006 74.7996 273.339 75.7996C267.739 76.7329 261.172 77.1996 253.639 77.1996Z" fill="black"/>
<path id="o" d="M136.761 0H141.261C147.861 0 153.861 0.466666 159.261 1.4C164.728 2.26667 169.294 3.43333 172.961 4.9C176.694 6.3 179.928 8.06667 182.661 10.2C185.461 12.2667 187.661 14.3667 189.261 16.5C190.861 18.6333 192.128 20.9667 193.061 23.5C194.061 26.0333 194.694 28.3333 194.961 30.4C195.294 32.4667 195.461 34.6333 195.461 36.9V39.9C195.461 42.1667 195.294 44.3333 194.961 46.4C194.694 48.4667 194.061 50.8 193.061 53.4C192.128 55.9333 190.861 58.3 189.261 60.5C187.728 62.6333 185.561 64.7667 182.761 66.9C179.961 69.0333 176.728 70.8333 173.061 72.3C169.394 73.7667 164.828 74.9333 159.361 75.8C153.961 76.7333 147.928 77.2 141.261 77.2H136.761C130.094 77.2 124.028 76.7333 118.561 75.8C113.161 74.9333 108.594 73.7667 104.861 72.3C101.194 70.8333 97.9609 69.0333 95.1609 66.9C92.3609 64.7667 90.1609 62.6333 88.5609 60.5C87.0276 58.3 85.7609 55.9333 84.7609 53.4C83.8276 50.8 83.1943 48.4667 82.8609 46.4C82.5943 44.3333 82.4609 42.1667 82.4609 39.9V36.9C82.4609 34.6333 82.5943 32.4667 82.8609 30.4C83.1943 28.3333 83.8276 26.0333 84.7609 23.5C85.7609 20.9667 87.0276 18.6333 88.5609 16.5C90.1609 14.3667 92.3609 12.2667 95.1609 10.2C97.9609 8.06667 101.194 6.3 104.861 4.9C108.594 3.43333 113.161 2.26667 118.561 1.4C124.028 0.466666 130.094 0 136.761 0ZM166.061 39V37.6C166.061 35.4 165.661 33.3667 164.861 31.5C164.061 29.5667 162.694 27.7 160.761 25.9C158.894 24.1 156.094 22.6667 152.361 21.6C148.628 20.5333 144.161 20 138.961 20C133.628 20 129.094 20.5333 125.361 21.6C121.628 22.6667 118.828 24.1 116.961 25.9C115.094 27.7 113.761 29.5667 112.961 31.5C112.228 33.3667 111.861 35.4 111.861 37.6V38.8C111.861 41 112.261 43.1 113.061 45.1C113.861 47.0333 115.194 48.9667 117.061 50.9C118.928 52.7667 121.728 54.2667 125.461 55.4C129.261 56.5333 133.761 57.1 138.961 57.1C144.161 57.1 148.628 56.5667 152.361 55.5C156.161 54.3667 158.994 52.8667 160.861 51C162.728 49.1333 164.061 47.2333 164.861 45.3C165.661 43.3 166.061 41.2 166.061 39Z" fill="black"/>
<path id="l" d="M0 1.3999H28.4V54.4999H80V75.7999H0V1.3999Z" fill="black"/>
</g>
</svg>
